<svg xmlns="http://www.w3.org/2000/svg" viewBox="0 0 1200 1200" width="1200" height="1200" x="0" y="0"><defs fill="#606c38"><pattern id="pattern" x="0" y="0" width="8" height="8" patternUnits="userSpaceOnUse" fill="#606c38"><polygon points="0,4 0,8 8,0 4,0" fill="#ffffff"/><polygon points="4,8 8,8 8,4" fill="#ffffff"/></pattern><mask id="grating" x="0" y="0" width="1" height="1" fill="#606c38"><rect x="0" y="0" width="100%" height="100%" fill="url(#pattern)"/></mask></defs><g id="horizStripes"><rect fill="#a08858" height="40" width="100%" x="0" y="0"/><rect fill="#da291c" height="184" width="100%" x="0" y="40"/><rect fill="#283618" height="176" width="100%" x="0" y="224"/><rect fill="#E8CCB8" height="32" width="100%" x="0" y="400"/><rect fill="#283618" height="32" width="100%" x="0" y="432"/><rect fill="#E8CCB8" height="32" width="100%" x="0" y="464"/><rect fill="#283618" height="32" width="100%" x="0" y="496"/><rect fill="#E8CCB8" height="184" width="100%" x="0" y="528"/><rect fill="#283618" height="32" width="100%" x="0" y="712"/><rect fill="#E8CCB8" height="32" width="100%" x="0" y="744"/><rect fill="#283618" height="32" width="100%" x="0" y="776"/><rect fill="#E8CCB8" height="32" width="100%" x="0" y="808"/><rect fill="#283618" height="176" width="100%" x="0" y="840"/><rect fill="#da291c" height="184" width="100%" x="0" y="1016"/></g><g id="vertStripes" mask="url(#grating)"><rect fill="#a08858" height="100%" width="40" x="0" y="0"/><rect fill="#da291c" height="100%" width="184" x="40" y="0"/><rect fill="#283618" height="100%" width="176" x="224" y="0"/><rect fill="#E8CCB8" height="100%" width="32" x="400" y="0"/><rect fill="#283618" height="100%" width="32" x="432" y="0"/><rect fill="#E8CCB8" height="100%" width="32" x="464" y="0"/><rect fill="#283618" height="100%" width="32" x="496" y="0"/><rect fill="#E8CCB8" height="100%" width="184" x="528" y="0"/><rect fill="#283618" height="100%" width="32" x="712" y="0"/><rect fill="#E8CCB8" height="100%" width="32" x="744" y="0"/><rect fill="#283618" height="100%" width="32" x="776" y="0"/><rect fill="#E8CCB8" height="100%" width="32" x="808" y="0"/><rect fill="#283618" height="100%" width="176" x="840" y="0"/><rect fill="#da291c" height="100%" width="184" x="1016" y="0"/></g></svg>