<svg xmlns="http://www.w3.org/2000/svg" viewBox="0 0 500.1 504.01"><g id="Layer_2" data-name="Layer 2"><g id="Layer_1-2" data-name="Layer 1"><path d="M29.64,240.32c-.2,3.87-.31,7.74-.31,11.65q0,6.32.37,12.49a49.77,49.77,0,0,0,20.41,95.21,51,51,0,0,0,7.63-.63A215.6,215.6,0,0,0,70.8,379.28a49.79,49.79,0,0,0,74.66,64.55,210.35,210.35,0,0,0,21.93,10,49.79,49.79,0,0,0,42.82,49.66,49.08,49.08,0,0,0,7,.5,49.71,49.71,0,0,0,47.75-36.2,215.12,215.12,0,0,0,24-3.42,49.75,49.75,0,0,0,89.64-41.16,213.69,213.69,0,0,0,18.2-15.78,49.77,49.77,0,0,0,53.41-83,203.6,203.6,0,0,0,6.8-23.19A49.79,49.79,0,0,0,500.1,252v-1a49.81,49.81,0,0,0-43.29-49.16,213,213,0,0,0-6.89-23.2,49.75,49.75,0,0,0-53.77-82.68,213.25,213.25,0,0,0-18.21-15.75,49.78,49.78,0,0,0-89.85-40.81,222.39,222.39,0,0,0-23.92-3.28,49.77,49.77,0,0,0-97.62,14.32A229.63,229.63,0,0,0,144.66,60.5a49.79,49.79,0,0,0-74.35,64.91,211.38,211.38,0,0,0-13,20.24,49.75,49.75,0,0,0-27.7,94.66Zm24.8,4a49.67,49.67,0,0,0,25.93-88.8c2.68-4.58,5.54-9.06,8.57-13.38a49.75,49.75,0,0,0,69.84-60.88q7-3.6,14.35-6.64a49.88,49.88,0,0,0,43.15,25.08,56.37,56.37,0,0,0,7.21-.51,49.86,49.86,0,0,0,41.35-38.06c5.32.53,10.55,1.29,15.7,2.23A49.74,49.74,0,0,0,309.7,111.2a48.91,48.91,0,0,0,20.56,4.51,49.8,49.8,0,0,0,34.58-14.12c4.17,3.28,8.22,6.78,12.11,10.4a49.6,49.6,0,0,0-1.24,56h-.11a48.78,48.78,0,0,0,51.77,21.63c1.71,5,3.26,10,4.56,15.19a49.8,49.8,0,0,0-31.49,46.57V252a49.75,49.75,0,0,0,31.66,46.34c-1.29,5.19-2.81,10.22-4.5,15.21a49.72,49.72,0,0,0-50.13,77.91q-5.81,5.43-12,10.42a49.77,49.77,0,0,0-84.21,38.61c-5.2.94-10.39,1.77-15.69,2.32a49.74,49.74,0,0,0-91.73-13.16c-4.92-2-9.7-4.21-14.4-6.57a49.76,49.76,0,0,0-70.09-60.62c-3.05-4.33-5.94-8.75-8.61-13.3a49.8,49.8,0,0,0-26.33-88.84c-.12-2.78-.19-5.55-.19-8.31,0-2.58.08-5.11.2-7.67Z"/></g></g></svg>