<svg xmlns="http://www.w3.org/2000/svg" viewBox="0 0 393.87 527.07"><g id="Layer_2" data-name="Layer 2"><g id="Layer_1-2" data-name="Layer 1"><path d="M104.7,308C136,294.83,150.82,257,134.35,225.65L104.7,171.3c6.59-6.59,11.53-14.82,11.53-24.71,0-8.23-3.29-14.82-8.23-21.41,23.05-8.23,39.52-31.29,39.52-59.29a65.88,65.88,0,1,0-131.76,0,64.63,64.63,0,0,0,41.17,60.94C52,133.42,48.7,140,48.7,148.24c0,9.88,4.94,18.12,11.53,24.71L30.58,227.3c-18.11,31.29-1.65,69.18,29.65,82.35L9.17,410.12c-28,52.71,11.53,117,72.47,117s100.47-64.23,72.47-118.59ZM48.7,65.89A32.94,32.94,0,1,1,81.64,98.83,33,33,0,0,1,48.7,65.89ZM81.64,494.12c-36.23,0-59.29-37.88-42.82-70.82L81.64,336,61.88,431.54A48.82,48.82,0,0,0,75.05,476a51.74,51.74,0,0,0,24.71,13.17c-4.94,3.3-11.53,4.95-18.12,4.95Z"/><path d="M384.7,408.47,333.64,308c31.29-13.17,46.12-51.05,29.65-82.35L333.64,171.3c6.59-6.59,11.53-14.82,11.53-24.71,0-8.23-3.29-14.82-8.23-21.41,24.7-8.24,41.17-31.3,41.17-59.3a65.89,65.89,0,0,0-131.77,0,64.62,64.62,0,0,0,41.18,60.94c-4.94,6.59-8.23,13.18-8.23,21.42,0,9.88,4.94,18.12,11.53,24.7L261.17,227.3c-18.12,31.29-1.65,69.17,29.65,82.35L239.76,410.12c-28,52.71,11.52,117,72.47,117S412.7,462.83,384.7,408.48ZM279.29,65.89a32.94,32.94,0,1,1,32.94,32.94A33,33,0,0,1,279.29,65.89Zm32.94,428.23c-36.23,0-59.29-37.88-42.82-70.82L312.23,336l-19.76,95.53A48.82,48.82,0,0,0,305.64,476a51.74,51.74,0,0,0,24.71,13.17c-4.94,3.3-11.53,4.95-18.12,4.95Z"/></g></g></svg>