<svg xmlns="http://www.w3.org/2000/svg" viewBox="0 0 646.26 111.02"><g id="Layer_2" data-name="Layer 2"><g id="Layer_1-2" data-name="Layer 1"><path d="M103.61,85.06c-1.33,17.69-16.14,31.69-28.25,18.54-2.13-1.88-4.59-6.68-4.64-9.5-2.93,3.4-3.17,3.75-6,6.58C49.74,116,25.1,112.55,12,96.55,3.08,85.58,0,70.84,0,57,0,25.63,17.47,3,48.2,3,88.38,3,93.5,42.1,93.5,42.1L78.58,47.46S76,16.26,48.2,16.26C27.27,16.26,15.25,33.93,15.25,57c0,10.7,2.63,22.06,9.71,30.37a27.71,27.71,0,0,0,29.58,8.49A56.9,56.9,0,0,0,77.21,81.66a82.06,82.06,0,0,1,8.87-8.44c-.48,0-.94,0-1.44,0l-4.25-.16H44.64C32,72.09,32.29,58.92,32.29,58.92c0-6.21,5.06-10.5,10-13.93l.16.28c-3.65,3.16-3.24,5.32-3.24,5.32,0,7.67,9.27,7.5,9.27,7.5l31.83.6-.1,0h.1c9.73,0,15.93,3.08,19.4,8.13.12.18.26.34.38.54l.09.16a18.62,18.62,0,0,1,1.9,4.26A36.41,36.41,0,0,1,103.61,85.06Zm-2-4.68c-1.38-3.47-4.48-7.18-15.3-7.16-20.46,22.4,9.83,47.47,15.4,13.21A13.09,13.09,0,0,0,101.57,80.38Z"/><path d="M148.52,39.23c-23.05,0-36.65,15.48-36.65,35.19s13.6,35.3,36.65,35.3,36.64-15.48,36.64-35.3S171.54,39.23,148.52,39.23Zm0,59.73a21.14,21.14,0,0,1-15.16-6c-4.12-4.34-6.6-10.9-6.6-18.52,0-11.65,5.31-20.33,14.4-23.32h0a20.33,20.33,0,0,1,20,2.83,19.43,19.43,0,0,1,2.5,2.1,21.66,21.66,0,0,1,1.76,2.15c.14.17.25.34.36.5a27.77,27.77,0,0,1,4.49,15.73,33.59,33.59,0,0,1-.28,4.44C168.41,90.94,160.37,99,148.52,99Z"/><path d="M210.92,106.68v2.25H196.39l0-94.26c0-10.91-4.7-8.22-12.58-6.8V7.61L210.92.55Z"/><path d="M304.09,7.59v.18c-7.88-1.41-12.58-4.1-12.58,6.81l0,94.25H277V98.56A24.23,24.23,0,0,1,255.26,111c-18.94,0-31.72-15-31.72-35.88s12.78-35.76,31.72-35.76c13.29,0,19.24,11.93,21.75,20V.45ZM277,90.2V60.13a19.44,19.44,0,0,0-17.41-9.81c-13.47,0-21.45,10.08-21.45,24.82s8,24.94,21.45,24.94A19.44,19.44,0,0,0,277,90.2Z"/><path d="M408.28,108.4C410.43,73.63,389,71.09,389,71.09S373.37,69.3,373.37,58c0-2.75,2.53-4.17,4.87-4.83,3.38-.94,7-.48,10.37-1.39a18.22,18.22,0,0,0,12.17-10,21.4,21.4,0,0,0,1.67-8.62c0-11-6.47-16.94-18.8-17.4v0H364.92V49.18l0,.07,0,0v59.23H350.44V17.28c-.38-8.82-4.84-12.64-12.54-12.64V4.39h45.68c20.68,0,33.43,7,33.43,26.73,0,5.22-1.32,10.5-4.88,14.46-3,3.4-7.28,5.41-11.62,6.59A60.26,60.26,0,0,1,385.86,54c-1.28,0-2.56-.05-3.85,0-2.18,0-6.88.44-6.18,3.68.49,2.31,4.49,2.55,6.28,2.6,4.62.15,9.23-.4,13.8.34a31.83,31.83,0,0,1,6.83,1.92,28.82,28.82,0,0,1,7.43,4.47A31.68,31.68,0,0,1,417,75a46.32,46.32,0,0,1,5.08,12.78,81.62,81.62,0,0,1,2.13,18.56c0,.7,0,1.4,0,2.1Z"/><path d="M500.58,39.57l0,68.93h-14.5V60.76c-2.78,37-14.48,49.11-29.27,49.11-18.93,0-24.62-14.86-24.62-35.75V39.44h14.61V74.12c0,14.74.88,24.81,14.35,24.81,9.16,0,24.93-3.06,24.93-57.12V39.57Z"/><path d="M525.23,92.46a21.58,21.58,0,0,0,12.19,6.11,23.88,23.88,0,0,0,5.41.22c4.75-.36,9.58-2.12,12.74-5.68,4.31-4.86,4.44-13-1.5-16.57a25.25,25.25,0,0,0-8.23-2.72c-3-.6-6-1-9-1.6a73.63,73.63,0,0,1-9.13-2.46c-2.82-1-6.3-1.69-8.84-3.28a13.65,13.65,0,0,1-6.78-7,10.79,10.79,0,0,1-.33-5.61,19.58,19.58,0,0,1,1.43-5.19c1.45-2.87,4.55-5.18,7.31-6.66A24.75,24.75,0,0,1,522.8,41a35.67,35.67,0,0,1,12.76-2.25c6.75-.12,13.68,1,19.52,4.36s10.42,9.36,11,16.09l-13.32,4.39a12.74,12.74,0,0,0-3.13-9.22,15.18,15.18,0,0,0-7.06-4.12,17.48,17.48,0,0,0-10.18-.07,12.24,12.24,0,0,0-7.53,6.61,9.59,9.59,0,0,0,.83,9c2,2.78,5.75,4,8.93,4.74,7.57,1.76,15.38,2.38,22.73,5.06a38.2,38.2,0,0,1,4.26,1.83,15.11,15.11,0,0,1,6.4,5.39,12.65,12.65,0,0,1,1.49,7.48,19.11,19.11,0,0,1-4,10.16c-5.48,7-15,9.62-23.9,9.54-8.47-.08-17.18-2.37-23.6-7.9-3.56-3.06-6.41-7.3-6.64-12-.33-6.91,5-12.74,11.23-15a23.18,23.18,0,0,1,6.54-1.26c-3.29,1.26-6.52,3.09-7.61,6.68a10.3,10.3,0,0,0,.34,6.53A15.6,15.6,0,0,0,525.23,92.46Z"/><path d="M646.26,73.83V108.5H631.65V73.83c0-14.75-.89-24.82-14.36-24.82-9.16,0-24.92,3.07-24.92,57.12v2.25H577.84l0-94.25c0-10.92-4.7-8.22-12.58-6.81V7.07L592.36,0V87.13c2.8-37,14.49-49,29.27-49C640.56,38.08,646.25,52.93,646.26,73.83Z"/></g></g></svg>