<svg xmlns="http://www.w3.org/2000/svg" viewBox="0 0 308 448"><defs><style>.cls-1{fill-rule:evenodd;}</style></defs><g id="Layer_2" data-name="Layer 2"><g id="Layer_1-2" data-name="Layer 1"><path class="cls-1" d="M160.38,203.73c2.52-5.88,5.94-15,7.16-23.7,8.73-2.47,17.71-7.24,27-14.07,20.18-14.92,41.34-39.46,62.9-71,12.7-18.57,24.76-38.43,35.8-58.3,3.87-6.95,7.33-13.4,10.34-19.2,1.82-3.5,3.08-6,3.75-7.36a7,7,0,0,0-12.56-6.18c-.63,1.27-1.84,3.69-3.61,7.08-2.95,5.69-6.35,12-10.15,18.86-10.85,19.51-22.7,39-35.13,57.2-20.75,30.37-41,53.85-59.66,67.65a77.66,77.66,0,0,1-19,10.73C165.22,156.79,160.06,154,154,154s-11.22,2.79-13.17,11.43a77.84,77.84,0,0,1-19-10.73c-18.66-13.8-38.9-37.28-59.66-67.65C49.74,68.87,37.9,49.36,27,29.85,23.25,23,19.85,16.68,16.89,11c-1.76-3.39-3-5.81-3.61-7.08A7,7,0,0,0,.72,10.09c.67,1.36,1.93,3.86,3.75,7.36,3,5.8,6.48,12.26,10.34,19.2,11,19.87,23.11,39.73,35.8,58.3,21.57,31.55,42.72,56.09,62.9,71,9.21,6.81,18.17,11.57,26.86,14a84.49,84.49,0,0,0,7,23.77A28,28,0,0,0,143.58,257C124.08,280.36,84,333,84,371c0,50.26,31.34,77,70,77s70-26.74,70-77c0-38-40.08-90.65-59.58-114a28,28,0,0,0-4-53.27ZM140,231a14,14,0,1,1,14,14A14,14,0,0,1,140,231Z"/></g></g></svg>