<svg xmlns="http://www.w3.org/2000/svg" viewBox="0 0 315.83 315.83"><g id="Layer_2" data-name="Layer 2"><g id="Layer_1-2" data-name="Layer 1"><path d="M229.7,157.91a71.78,71.78,0,1,1-71.78-71.78,71.78,71.78,0,0,1,71.78,71.78"/><path d="M157.92,52.64a14.37,14.37,0,0,0,14.35-14.36V14.35a14.36,14.36,0,0,0-28.71,0V38.28a14.36,14.36,0,0,0,14.36,14.36Z"/><path d="M63.18,83.48a14.35,14.35,0,0,0,20.3-20.3L66.56,46.26a14.35,14.35,0,0,0-20.3,20.3Z"/><path d="M52.64,157.91a14.37,14.37,0,0,0-14.36-14.36H14.36a14.36,14.36,0,1,0,0,28.71H38.28a14.36,14.36,0,0,0,14.36-14.35Z"/><path d="M63.18,232.35,46.26,249.27a14.35,14.35,0,0,0,20.3,20.3l16.92-16.92h0a14.35,14.35,0,1,0-20.3-20.3Z"/><path d="M157.92,263.19a14.34,14.34,0,0,0-14.36,14.35v23.93a14.36,14.36,0,0,0,28.71,0V277.54a14.34,14.34,0,0,0-14.35-14.35Z"/><path d="M252.66,232.35a14.35,14.35,0,0,0-20.3,20.3l16.92,16.92h0a14.35,14.35,0,1,0,20.3-20.3Z"/><path d="M315.83,157.91a14.37,14.37,0,0,0-14.36-14.36H277.55a14.36,14.36,0,1,0,0,28.71h23.92a14.36,14.36,0,0,0,14.36-14.35Z"/><path d="M242.51,87.68a14.28,14.28,0,0,0,10.14-4.21l16.92-16.92a14.35,14.35,0,0,0-20.3-20.3L232.36,63.17a14.36,14.36,0,0,0,10.15,24.51Z"/></g></g></svg>