<svg enable-background="new 0 0 502.3 417.2" viewBox="0 0 502.3 417.2" xmlns="http://www.w3.org/2000/svg"><g transform="scale(.1)"><g fill="#1c232d"><path d="m3501.9 1086.9c19.5 38.5 44.8 195.7 43.2 208.4 6.1 20.3.4 173.3-11.1 200.5-8.3 57.8-30.8 146-59.2 198-3.8 24.4-136.5 250.9-160.5 266.1-12.3 14.4-25.1 28.8-38.4 42.7-94.4 98.1-146.1 220.8-146.1 345.6v408.5h-15.5c4.3 13.3 5.9 27.7 5.9 42.1 0 90.1-69.9 163.7-157.9 170.7 3.7 14.4 5.9 29.9 5.9 45.3 0 94.9-76.8 171.7-171.7 171.7h-323.2l-205.9 985.6c350.4-248 1531.2-571.7 2357.3-20.3l398.4-2795.2c-528.2-321.4-1090.8-342.7-1521.2-269.7z"/><path d="m2217.6 3014.9c0-15.5 2.1-30.4 6.4-44.8-89.1-6.4-159.5-80.5-159.5-171.2 0-14.4 1.6-28.8 5.9-42.1h-5.9v-408.5c0-127.5-48.5-246.9-136.5-336-17.1-17.1-70.7-84.2-85.6-102.3-33.4-24.4-94.9-159.4-121.8-216.1-37-78.1-60.2-206.3-65.1-248.4-3.8-32.3-.8-165.5 7-212 1.4-8.4 5.9-38.6 7-46.6 7.8-55.5 42.4-150.4 59.2-197.4 25.4-71.2 121.9-218.4 137.6-233.7 28.3-35.2 59.2-68.3 92.3-98.7-365.5-141.4-790.6-205.9-1143.7-105.6l-814.9 2794.6c873.6-228.3 1998.4 446.9 2170.7 805.9l202.1-966.4c-86.9-8-155.2-81.1-155.2-170.7z"/><path d="m3426.6 1348.3v.5c0 9.6 0 19.8-1 29.9v2.7c-7.5 203.7-88.6 395.7-231 543.4-114.6 119-177.6 269.4-177.6 423.5v293.3 2.7h-430.4-100.8-308.8v-6.4-289.6c0-157.3-59.7-305.1-169-415.5-146.7-147.7-231.5-345.6-239.5-552v-3.2c-1.1-10.6-1.1-19.2-1.1-29.8.6-.6.6-.6 0-1.1 0-22.9.6-44.8 2.7-68.3 8.5-100.2 34.7-195.2 76.3-282.6v-.6c15.4-32.5 33-63.4 52.8-93.3 1-.5.5-1.1.5-1.1 47.5-74.1 106.7-140.2 174.9-195.2 13.4-11.2 27.2-21.8 41.6-32 38.4-27.7 79-51.7 122.2-72.5 86.9-42.1 181.8-69.3 282.1-78.4 7.5-1.1 15.5-1.6 23.5-2.1 43.7-2.7 86.9-2.2 129.6 2.1h.5c98.7 8.5 193.1 34.7 281.1 77.3 43.7 20.8 85.3 45.4 124.8 73.6.5.6.5.6 1 .6 29.9 21.8 57.1 44.2 84.3 69.8 49.6 46.4 91.7 97.6 128.5 154.2 0 .5 0 .5.6 1 19.7 30.4 37.3 63 52.8 96 17 36.3 32 74.2 43.2 113.1 24 76.8 36.2 156.8 36.2 238.4v.5c-.5.6-.5.6 0 1.1zm-122.6.5c0-72.5-10.7-143.4-32-211.2-35.2-114.6-100.3-218.6-191-304-143.4-134.9-331.7-202.1-529-189.8-130.2 8-251.2 51.7-353.1 121.6-170.7 116.8-288 306.6-306.1 523.2-17.1 207.4 56.5 410.6 202.1 557.8 132.3 133.4 205.3 311.5 205.3 501.9v173.3h211.2 100.8 281.6v-173.3c0-186.1 75.2-366.9 212.3-508.8 127.5-132.3 197.9-306.7 197.9-490.7z"/><path d="m3272 1137.6c21.3 67.8 32 138.7 32 211.2 0 184-70.4 358.4-197.9 490.7-137.1 141.9-212.3 322.7-212.3 508.8v173.3h-281.6-100.8-211.2v-173.3c0-190.4-73-368.5-205.3-501.9-145.6-147.2-219.2-350.4-202.1-557.8 18.1-216.6 135.4-406.4 306.1-523.2 101.9-69.9 222.9-113.6 353.1-121.6 197.3-12.3 385.6 54.9 529 189.8 90.7 85.4 155.8 189.4 191 304z"/></g><path d="m2552 643.8c197.3-12.3 385.6 54.9 529 189.8 90.7 85.4 155.8 189.4 191 304 21.3 67.8 32 138.7 32 211.2 0 184-70.4 358.4-197.9 490.7-137.1 141.9-212.3 322.7-212.3 508.8v173.3h-281.6-100.8-211.2v-173.3c0-190.4-73-368.5-205.3-501.9-145.6-147.2-219.2-350.4-202.1-557.8 18.1-216.6 135.4-406.4 306.1-523.2 101.9-69.9 222.9-113.6 353.1-121.6z" fill="none" stroke="#1c232d" stroke-miterlimit="10" stroke-width="5"/><g fill="#1c232d"><path d="m2947.7 2858.1c33.1 0 59.2-26.7 59.2-59.2 0-16.5-6.9-31.5-17.6-42.1-10.7-10.7-25.1-17.1-41.6-17.1h-381.3-100.8-228.8c-16.5 0-30.9 6.4-41.6 17.1s-17.6 25.6-17.6 42.1c0 32.5 26.1 59.2 59.2 59.2h82.7 121.6 100.8 324.8z"/><path d="m2521.6 2955.7h-132.3c-14.4 0-28.3 5.3-38.4 14.9-12.8 10.1-20.8 26.1-20.8 44.3 0 32.5 26.7 59.2 59.2 59.2h6.4 100.8 299.7c32.5 0 59.2-26.7 59.2-59.2 0-18.1-8-34.1-20.8-44.3-10.1-9.6-24-14.9-38.4-14.9z"/></g></g></svg>