<svg enable-background="new 0 0 502.3 417.2" viewBox="0 0 502.3 417.2" xmlns="http://www.w3.org/2000/svg"><g fill="#fafafa" transform="scale(.1)"><path d="m3501.9 1086.9c11.7 38.9 20.8 78.9 27.2 119.5 22.4-10.1 47.5-16 74.1-16h297.1c98.1 0 178.1 80 178.1 178.1s-80 178.1-178.1 178.1h-297.1c-28.8 0-56-6.9-80-19.2-11.2 57.1-27.2 112.5-48.5 166.4 28.8.5 57.6 9.1 83.2 23.5l257.1 148.8c84.8 49.1 114.1 157.9 65.1 243.2-32 54.9-90.7 89.1-154.1 89.1-31.5 0-61.9-8.5-89.1-24l-257.1-148.8c-28.3-16.5-50.1-38.9-65.6-65.6-12.3 14.4-25.1 28.8-38.4 42.7-94.4 98.1-146.1 220.8-146.1 345.6v408.5h-15.5c4.3 13.3 5.9 27.7 5.9 42.1 0 90.1-69.9 163.7-157.9 170.7 3.7 14.4 5.9 29.9 5.9 45.3 0 94.9-76.8 171.7-171.7 171.7h-323.2l-205.9 985.6c350.4-248 1531.2-571.7 2357.3-20.3l398.4-2795.2c-528.1-321.5-1090.7-342.8-1521.1-269.8"/><path d="m2217.6 3014.9c0-15.5 2.1-30.4 6.4-44.8-89.1-6.4-159.5-80.5-159.5-171.2 0-14.4 1.6-28.8 5.9-42.1h-5.9v-408.5c0-127.5-48.5-246.9-136.5-336-17.1-17.1-33.1-34.7-48-52.8-14.9 26.7-37.3 49.6-65.6 66.1l-257.1 148.8c-26.7 15.5-57.6 24-89.1 24-63.5 0-122.1-34.1-154.1-89.1-49.1-85.3-19.7-194.1 65.1-243.2l257.6-148.8c25.1-14.4 54.4-22.9 83.7-23.5-21.3-53.9-37.9-109.9-48.5-166.9-24 12.8-51.7 19.7-81.1 19.7h-297.1c-98.1 0-178.1-80-178.1-178.1s80-178.1 178.1-178.1h297.1c26.7 0 52.3 5.9 74.7 16.5 8.5-57.1 22.4-112 40.5-165.3-24.5-2.1-48-9.6-69.3-21.9l-257.6-148.8c-84.8-49.1-114.1-157.9-65.1-243.2 31.5-54.9 90.7-89.1 154.1-89.1 31.5 0 61.9 8.5 89.1 24l257.1 148.3c20.3 11.7 37.9 27.2 51.7 44.8 28.3-35.2 59.2-68.3 92.3-98.7-365.3-141.3-790.4-205.8-1143.5-105.5l-814.9 2794.6c873.6-228.3 1998.4 446.9 2170.7 805.9l202.1-966.4c-86.9-8-155.2-81.1-155.2-170.7"/><path d="m3304.4 1116.1c22.3 71.1 33.5 145.4 33.5 221.4 0 192.9-73.8 375.7-207.5 514.4-143.7 148.8-222.6 338.3-222.6 533.4v181.7h-295.2-105.6-221.4v-181.7c0-199.6-76.5-386.3-215.2-526.2-152.6-154.3-229.8-367.4-211.9-584.8 19-227.1 142-426.1 320.9-548.5 106.8-73.3 233.7-119.1 370.2-127.5 206.8-12.9 404.3 57.6 554.6 199 95.1 89.6 163.3 198.6 200.2 318.8z"/><path d="m3426.6 1348.3v.5c0 9.6 0 19.8-1 29.9v2.7c-7.5 203.7-88.6 395.7-231 543.4-114.6 119-177.6 269.4-177.6 423.5v293.3 2.7h-430.4-100.8-308.8v-6.4-289.6c0-157.3-59.7-305.1-169-415.5-146.7-147.7-231.5-345.6-239.5-552v-3.2c-1.1-10.6-1.1-19.2-1.1-29.8.6-.6.6-.6 0-1.1 0-22.9.6-44.8 2.7-68.3 8.5-100.2 34.7-195.2 76.3-282.6v-.6c15.4-32.5 33-63.4 52.8-93.3 1-.5.5-1.1.5-1.1 47.5-74.1 106.7-140.2 174.9-195.2 13.4-11.2 27.2-21.8 41.6-32 38.4-27.7 79-51.7 122.2-72.5 86.9-42.1 181.8-69.3 282.1-78.4 7.5-1.1 15.5-1.6 23.5-2.1 43.7-2.7 86.9-2.2 129.6 2.1h.5c98.7 8.5 193.1 34.7 281.1 77.3 43.7 20.8 85.3 45.4 124.8 73.6.5.6.5.6 1 .6 29.9 21.8 57.1 44.2 84.3 69.8 49.6 46.4 91.7 97.6 128.5 154.2 0 .5 0 .5.6 1 19.7 30.4 37.3 63 52.8 96 17 36.3 32 74.2 43.2 113.1 24 76.8 36.2 156.8 36.2 238.4v.5c-.5.6-.5.6 0 1.1zm-122.6.5c0-72.5-10.7-143.4-32-211.2-35.2-114.6-100.3-218.6-191-304-143.4-134.9-331.7-202.1-529-189.8-130.2 8-251.2 51.7-353.1 121.6-170.7 116.8-288 306.6-306.1 523.2-17.1 207.4 56.5 410.6 202.1 557.8 132.3 133.4 205.3 311.5 205.3 501.9v173.3h211.2 100.8 281.6v-173.3c0-186.1 75.2-366.9 212.3-508.8 127.5-132.3 197.9-306.7 197.9-490.7z"/><path d="m2947.7 2858.1c33.1 0 59.2-26.7 59.2-59.2 0-16.5-6.9-31.5-17.6-42.1-10.7-10.7-25.1-17.1-41.6-17.1h-381.3-100.8-228.8c-16.5 0-30.9 6.4-41.6 17.1s-17.6 25.6-17.6 42.1c0 32.5 26.1 59.2 59.2 59.2h82.7 121.6 100.8 324.8z"/><path d="m2521.6 2955.7h-132.3c-14.4 0-28.3 5.3-38.4 14.9-12.8 10.1-20.8 26.1-20.8 44.3 0 32.5 26.7 59.2 59.2 59.2h6.4 100.8 299.7c32.5 0 59.2-26.7 59.2-59.2 0-18.1-8-34.1-20.8-44.3-10.1-9.6-24-14.9-38.4-14.9z"/><path d="m2597.3 427.7c18.1 0 35.2-8 46.9-20.3 11.2-11.7 18.1-27.7 18.1-45.3v-297c0-36.3-29.3-65.1-65.1-65.1-36.3 0-65.6 28.8-65.6 65.1v297.1c0 18.1 6.9 34.1 18.7 45.9 11.8 12.2 28.9 19.6 47 19.6"/><path d="m2037.3 529.6c10.1 17.1 26.7 28.3 44.8 31.5 3.7.5 8 1.1 11.7 1.1 11.2 0 22.4-2.7 32.5-8.5 14.9-8.5 25.1-21.9 29.9-36.8 5.3-17.1 3.7-35.7-5.9-52.3l-148.3-257.6c-18.1-30.9-58.1-42.1-89.6-24-30.9 18.1-41.6 58.1-24 89.6z"/><path d="m1782.4 898.1c6.4-11.2 9.1-23.5 8.5-35.2v-.5c-1.1-21.9-12.8-42.1-32.5-53.9l-257.6-148.3c-30.9-18.1-70.9-7.5-89.1 24-18.1 30.9-7.5 70.9 24 89.1l257.1 148.8c10.7 5.9 21.9 8.5 32.5 8.5 11.2 0 22.4-2.7 32-8 0-.5.5-.5.5-.5 10.2-5.3 18.7-13.8 24.6-24"/><path d="m1590.9 1302.9h-297.1c-36.3 0-65.6 29.3-65.6 65.6s29.3 65.1 65.6 65.1h297.1c33.6 0 61.3-25.6 64.5-58.7v-.5c.5-2.1.5-3.7.5-5.9 0-3.7-.5-6.9-1.1-10.7v-2.7c-6.3-29.8-32.4-52.2-63.9-52.2"/><path d="m1692.8 1814.9-257.1 148.8c-31.5 17.6-42.1 57.6-24 89.1 12.3 20.8 34.1 32.5 56.5 32.5 11.2 0 22.4-2.7 32.5-8.5l257.6-148.8c30.9-17.6 42.1-57.6 24-89.1-18-31.4-58-42.1-89.5-24"/><path d="m3411.7 1838.9c-18.1 31.5-6.9 71.5 24 89.1l257.6 148.8c10.1 5.9 21.3 8.5 32.5 8.5 22.4 0 44.3-11.7 56.5-32.5 18.1-31.5 7.5-71.5-24-89.1l-257.1-148.8c-31.3-18.1-71.3-7.4-89.5 24"/><path d="m3603.2 1433.6h297.1c36.3 0 65.6-28.8 65.6-65.1s-29.3-65.6-65.6-65.6h-297.1c-30.9 0-56.5 21.9-63.5 50.7v.5c-1.1 4.8-1.6 9.6-1.6 14.4 0 3.7.5 7.5 1.1 11.2v2.1c6.4 29.9 32.5 51.8 64 51.8"/><path d="m3437.3 922.7c9.6 5.3 20.3 8 31.5 8 10.7 0 21.9-2.7 32.5-8.5l257.1-148.8c31.5-18.1 42.1-58.1 24-89.1-18.1-31.5-58.1-42.1-89.1-24l-257.6 148.3c-19.7 11.7-30.9 31.5-32.5 52.8v1.6c-.5 11.7 2.1 24 8.5 35.2 6.4 10.6 15.5 19.1 25.6 24.5"/><path d="m3067.7 553.6c10.1 5.9 21.3 8.5 32.5 8.5 4.3 0 9.1-.5 13.3-1.6 17.6-3.2 33.6-14.4 43.2-30.9l148.8-257.1c17.6-31.5 6.9-71.5-24-89.6-31.5-18.1-71.5-6.9-89.6 24l-148.3 257.6c-9.6 16-11.2 34.7-6.4 51.2 4.9 15.5 15.1 29.4 30.5 37.9"/></g></svg>