<svg width="18" height="18" viewBox="0 0 18 18" fill="none" xmlns="http://www.w3.org/2000/svg">
<path d="M6.1875 15.1875C6.49816 15.1875 6.75 14.9357 6.75 14.625C6.75 14.3143 6.49816 14.0625 6.1875 14.0625C5.87684 14.0625 5.625 14.3143 5.625 14.625C5.625 14.9357 5.87684 15.1875 6.1875 15.1875Z" stroke-width="1.5" stroke-linecap="round" stroke-linejoin="round"/>
<path d="M14.0625 15.1875C14.3732 15.1875 14.625 14.9357 14.625 14.625C14.625 14.3143 14.3732 14.0625 14.0625 14.0625C13.7518 14.0625 13.5 14.3143 13.5 14.625C13.5 14.9357 13.7518 15.1875 14.0625 15.1875Z" stroke-width="1.5" stroke-linecap="round" stroke-linejoin="round"/>
<path d="M1.6875 2.8125H3.9375L5.625 12.375H14.625" stroke-width="1.5" stroke-linecap="round" stroke-linejoin="round"/>
<path d="M5.625 10.125H14.3944C14.4594 10.125 14.5225 10.1025 14.5728 10.0613C14.6231 10.0201 14.6576 9.96273 14.6704 9.89895L15.6829 4.83645C15.691 4.79562 15.69 4.7535 15.6799 4.71311C15.6699 4.67272 15.6509 4.63507 15.6245 4.60288C15.5981 4.57069 15.5649 4.54477 15.5273 4.52698C15.4896 4.50918 15.4485 4.49997 15.4069 4.5H4.5" stroke-width="1.5" stroke-linecap="round" stroke-linejoin="round"/>
</svg>
