<?xml version="1.0" encoding="UTF-8"?>
<svg id="Layer_2" data-name="Layer 2" xmlns="http://www.w3.org/2000/svg" xmlns:xlink="http://www.w3.org/1999/xlink" viewBox="0 0 845 1080">
  <defs>
    <clipPath id="clippath">
      <rect width="845" height="1080" style="fill: none;"/>
    </clipPath>
  </defs>
  <g id="Layer_1-2" data-name="Layer 1">
    <g style="clip-path: url(#clippath);">
      <g>
        <g>
          <polygon points="371.65 -13 426.97 -13 62.65 1020.95 5.77 1059.8 371.65 -13" style="fill: #8c1d40;"/>
          <path d="m423.44-10.5L60.56,1019.35l-50,34.15L373.44-10.5h50m7.06-5h-60.64l-1.15,3.39L5.83,1051.89l-4.85,14.21,12.4-8.47,50-34.15,1.35-.92.54-1.54L428.16-8.84l2.35-6.66h0Z" style="fill: #8c1d40;"/>
        </g>
        <g>
          <polygon points="751.65 -534 806.97 -534 442.65 499.95 385.77 538.8 751.65 -534" style="fill: #ffc627;"/>
          <path d="m803.44-531.5L440.56,498.35l-50,34.15,362.88-1064h50m7.06-5h-60.64l-1.15,3.39L385.83,530.89l-4.85,14.21,12.4-8.47,50-34.15,1.35-.92.54-1.54,362.88-1029.85,2.35-6.66h0Z" style="fill: #ffc627;"/>
        </g>
        <g>
          <polygon points="547.65 -93 602.97 -93 238.65 940.95 181.77 979.8 547.65 -93" style="fill: #00a3e0;"/>
          <path d="m599.44-90.5L236.56,939.35l-50,34.15L549.44-90.5h50m7.06-5h-60.64l-1.15,3.39L181.83,971.89l-4.85,14.21,12.4-8.47,50-34.15,1.35-.92.54-1.54L604.16-88.84l2.35-6.66h0Z" style="fill: #00a3e0;"/>
        </g>
        <g>
          <polygon points="967.65 -129 1022.97 -129 658.65 904.95 601.77 943.8 967.65 -129" style="fill: #ffc627;"/>
          <path d="m1019.44-126.5l-362.88,1029.85-50,34.15L969.44-126.5h50m7.06-5h-60.64l-1.15,3.39-362.88,1064-4.85,14.21,12.4-8.47,50-34.15,1.35-.92.54-1.54L1024.16-124.84l2.35-6.66h0Z" style="fill: #ffc627;"/>
        </g>
        <g>
          <polygon points="756.65 -184 811.97 -184 447.65 849.95 390.77 888.8 756.65 -184" style="fill: #78be20;"/>
          <path d="m808.44-181.5L445.56,848.35l-50,34.15L758.44-181.5h50m7.06-5h-60.64l-1.15,3.39L390.83,880.89l-4.85,14.21,12.4-8.47,50-34.15,1.35-.92.54-1.54L813.16-179.84l2.35-6.66h0Z" style="fill: #78be20;"/>
        </g>
        <g>
          <polygon points="294.03 1302 658.35 268.05 715.23 229.2 349.35 1302 294.03 1302" style="fill: #ff7f32;"/>
          <path d="m710.44,235.5l-362.88,1064h-50L660.44,269.65l50-34.15m9.58-12.6l-12.4,8.47-50,34.15-1.35.92-.54,1.54-362.88,1029.85-2.35,6.66h60.64l1.15-3.39L715.17,237.11l4.85-14.21h0Z" style="fill: #ff7f32;"/>
        </g>
        <g>
          <polygon points="1137.65 -472 1192.97 -472 828.65 561.95 771.77 600.8 1137.65 -472" style="fill: #fff;"/>
          <path d="m1189.44-469.5l-362.88,1029.85-50,34.15,362.88-1064h50m7.06-5h-60.64l-1.15,3.39-362.88,1064-4.85,14.21,12.4-8.47,50-34.15,1.35-.92.54-1.54,362.88-1029.85,2.35-6.66h0Z" style="fill: #fff;"/>
        </g>
        <g>
          <polygon points="1073.65 -654 1128.97 -654 764.65 379.95 707.77 418.8 1073.65 -654" style="fill: #747474;"/>
          <path d="m1125.44-651.5L762.56,378.35l-50,34.15,362.88-1064h50m7.06-5h-60.64l-1.15,3.39L707.83,410.89l-4.85,14.21,12.4-8.47,50-34.15,1.35-.92.54-1.54,362.88-1029.85,2.35-6.66h0Z" style="fill: #747474;"/>
        </g>
      </g>
    </g>
  </g>
</svg>