<?xml version="1.0" encoding="UTF-8"?>
<svg id="Layer_2" data-name="Layer 2" xmlns="http://www.w3.org/2000/svg" xmlns:xlink="http://www.w3.org/1999/xlink" viewBox="0 0 359 640">
  <defs>
    <clipPath id="clippath">
      <rect width="359" height="640" style="fill: none;"/>
    </clipPath>
  </defs>
  <g id="Layer_1-2" data-name="Layer 1">
    <g style="clip-path: url(#clippath);">
      <g>
        <polygon points="142.35 -108.73 176.77 -108.73 -35.82 494.59 -71.79 519.16 142.35 -108.73" style="fill: #8c1d40;"/>
        <path d="m173.24-106.23L-37.91,492.99l-29.09,19.87L144.14-106.23h29.09m7.06-5h-39.73l-1.15,3.39L-71.73,511.25l-4.85,14.21,12.4-8.47,29.09-19.87,1.35-.92.54-1.54L177.95-104.57l2.35-6.66h0Z" style="fill: #8c1d40;"/>
      </g>
      <g>
        <polygon points="348.46 -364.88 382.87 -364.88 170.28 238.45 134.32 263.01 348.46 -364.88" style="fill: #ffc627;"/>
        <path d="m379.34-362.38L168.2,236.84l-29.09,19.87,211.14-619.1h29.09m7.06-5h-39.73l-1.15,3.39L134.37,255.1l-4.85,14.21,12.4-8.47,29.09-19.87,1.35-.92.54-1.54,211.14-599.23,2.35-6.66h0Z" style="fill: #ffc627;"/>
      </g>
      <g>
        <polygon points="229.76 -108.28 264.17 -108.28 51.59 495.05 15.62 519.61 229.76 -108.28" style="fill: #00a3e0;"/>
        <path d="m260.64-105.78L49.5,493.44l-29.09,19.87L231.55-105.78h29.09m7.06-5h-39.73l-1.15,3.39L15.67,511.7l-4.85,14.21,12.4-8.47,29.09-19.87,1.35-.92.54-1.54L265.36-104.12l2.35-6.66h0Z" style="fill: #00a3e0;"/>
      </g>
      <g>
        <polygon points="440.14 -11.23 474.55 -11.23 261.97 592.1 226 616.67 440.14 -11.23" style="fill: #ffc627;"/>
        <path d="m471.02-8.73l-211.14,599.23-29.09,19.87L441.93-8.73h29.09m7.06-5h-39.73l-1.15,3.39-211.14,619.1-4.85,14.21,12.4-8.47,29.09-19.87,1.35-.92.54-1.54L475.74-7.07l2.35-6.66h0Z" style="fill: #ffc627;"/>
      </g>
      <g>
        <polygon points="366.37 -208.23 400.78 -208.23 188.19 395.1 152.23 419.66 366.37 -208.23" style="fill: #78be20;"/>
        <path d="m397.25-205.73L186.11,393.49l-29.09,19.87L368.16-205.73h29.09m7.06-5h-39.73l-1.15,3.39L152.28,411.75l-4.85,14.21,12.4-8.47,29.09-19.87,1.35-.92.54-1.54L401.97-204.07l2.35-6.66h0Z" style="fill: #78be20;"/>
      </g>
      <g>
        <polygon points="96.46 658.5 309.05 55.17 345.02 30.6 130.88 658.5 96.46 658.5" style="fill: #ff7f32;"/>
        <path d="m340.23,36.9l-211.14,619.1h-29.09L311.14,56.77l29.09-19.87m9.58-12.6l-12.4,8.47-29.09,19.87-1.35.92-.54,1.54L95.28,654.34l-2.35,6.66h39.73l1.15-3.39L344.96,38.52l4.85-14.21h0Z" style="fill: #ff7f32;"/>
      </g>
      <g>
        <polygon points="539.06 -210.81 573.47 -210.81 360.88 392.52 324.91 417.09 539.06 -210.81" style="fill: #fff;"/>
        <path d="m569.94-208.31l-211.14,599.23-29.09,19.87,211.14-619.1h29.09m7.06-5h-39.73l-1.15,3.39-211.14,619.1-4.85,14.21,12.4-8.47,29.09-19.87,1.35-.92.54-1.54,211.14-599.23,2.35-6.66h0Z" style="fill: #fff;"/>
      </g>
      <g>
        <polygon points="501.82 -316.7 536.23 -316.7 323.64 286.62 287.67 311.19 501.82 -316.7" style="fill: #747474;"/>
        <path d="m532.7-314.2l-211.14,599.23-29.09,19.87,211.14-619.1h29.09m7.06-5h-39.73l-1.15,3.39-211.14,619.1-4.85,14.21,12.4-8.47,29.09-19.87,1.35-.92.54-1.54,211.14-599.23,2.35-6.66h0Z" style="fill: #747474;"/>
      </g>
    </g>
  </g>
</svg>