<?xml version="1.0" encoding="UTF-8"?>
<svg id="Layer_2" data-name="Layer 2" xmlns="http://www.w3.org/2000/svg" xmlns:xlink="http://www.w3.org/1999/xlink" viewBox="0 0 768 1025">
  <defs>
    <clipPath id="clippath">
      <rect width="768" height="1025" style="fill: none;"/>
    </clipPath>
  </defs>
  <g id="Layer_1-2" data-name="Layer 1">
    <g style="clip-path: url(#clippath);">
      <g>
        <g>
          <polygon points="198.15 -13.5 253.47 -13.5 -110.85 1020.45 -167.73 1059.3 198.15 -13.5" style="fill: #8c1d40;"/>
          <path d="m249.94-11L-112.94,1018.85l-50,34.15L199.94-11h50m7.06-5h-60.64l-1.15,3.39L-167.67,1051.39l-4.85,14.21,12.4-8.47,50-34.15,1.35-.92.54-1.54L254.66-9.34l2.35-6.66h0Z" style="fill: #8c1d40;"/>
        </g>
        <g>
          <polygon points="578.15 -534.5 633.47 -534.5 269.15 499.45 212.27 538.3 578.15 -534.5" style="fill: #ffc627;"/>
          <path d="m629.94-532L267.06,497.85l-50,34.15,362.88-1064h50m7.06-5h-60.64l-1.15,3.39L212.33,530.39l-4.85,14.21,12.4-8.47,50-34.15,1.35-.92.54-1.54,362.88-1029.85,2.35-6.66h0Z" style="fill: #ffc627;"/>
        </g>
        <g>
          <polygon points="374.15 -93.5 429.47 -93.5 65.15 940.45 8.27 979.3 374.15 -93.5" style="fill: #00a3e0;"/>
          <path d="m425.94-91L63.06,938.85l-50,34.15L375.94-91h50m7.06-5h-60.64l-1.15,3.39L8.33,971.39l-4.85,14.21,12.4-8.47,50-34.15,1.35-.92.54-1.54L430.66-89.34l2.35-6.66h0Z" style="fill: #00a3e0;"/>
        </g>
        <g>
          <polygon points="794.15 -129.5 849.47 -129.5 485.15 904.45 428.27 943.3 794.15 -129.5" style="fill: #ffc627;"/>
          <path d="m845.94-127L483.06,902.85l-50,34.15L795.94-127h50m7.06-5h-60.64l-1.15,3.39L428.33,935.39l-4.85,14.21,12.4-8.47,50-34.15,1.35-.92.54-1.54L850.66-125.34l2.35-6.66h0Z" style="fill: #ffc627;"/>
        </g>
        <g>
          <polygon points="583.15 -184.5 638.47 -184.5 274.15 849.45 217.27 888.3 583.15 -184.5" style="fill: #78be20;"/>
          <path d="m634.94-182L272.06,847.85l-50,34.15L584.94-182h50m7.06-5h-60.64l-1.15,3.39L217.33,880.39l-4.85,14.21,12.4-8.47,50-34.15,1.35-.92.54-1.54L639.66-180.34l2.35-6.66h0Z" style="fill: #78be20;"/>
        </g>
        <g>
          <polygon points="120.53 1301.5 484.85 267.55 541.73 228.7 175.85 1301.5 120.53 1301.5" style="fill: #ff7f32;"/>
          <path d="m536.94,235L174.06,1299h-50L486.94,269.15l50-34.15m9.58-12.6l-12.4,8.47-50,34.15-1.35.92-.54,1.54L119.34,1297.34l-2.35,6.66h60.64l1.15-3.39L541.67,236.61l4.85-14.21h0Z" style="fill: #ff7f32;"/>
        </g>
        <g>
          <polygon points="964.15 -472.5 1019.47 -472.5 655.15 561.45 598.27 600.3 964.15 -472.5" style="fill: #fff;"/>
          <path d="m1015.94-470l-362.88,1029.85-50,34.15L965.94-470h50m7.06-5h-60.64l-1.15,3.39-362.88,1064-4.85,14.21,12.4-8.47,50-34.15,1.35-.92.54-1.54L1020.65-468.34l2.35-6.66h0Z" style="fill: #fff;"/>
        </g>
        <g>
          <polygon points="900.15 -654.5 955.47 -654.5 591.15 379.45 534.27 418.3 900.15 -654.5" style="fill: #747474;"/>
          <path d="m951.94-652L589.06,377.85l-50,34.15,362.88-1064h50m7.06-5h-60.64l-1.15,3.39L534.33,410.39l-4.85,14.21,12.4-8.47,50-34.15,1.35-.92.54-1.54,362.88-1029.85,2.35-6.66h0Z" style="fill: #747474;"/>
        </g>
      </g>
    </g>
  </g>
</svg>