<?xml version="1.0" encoding="UTF-8"?>
<svg id="Layer_2" data-name="Layer 2" xmlns="http://www.w3.org/2000/svg" xmlns:xlink="http://www.w3.org/1999/xlink" viewBox="0 0 1920 1079.5">
  <defs>
    <clipPath id="clippath">
      <rect width="1920" height="1079.5" style="fill: none;"/>
    </clipPath>
  </defs>
  <g id="Layer_1-2" data-name="Layer 1">
    <g style="clip-path: url(#clippath);">
      <g>
        <g>
          <polygon points="420.53 1094.5 784.85 60.55 841.73 21.7 475.85 1094.5 420.53 1094.5" style="fill: #8c1d40;"/>
          <path d="m836.94,28l-362.88,1064h-50L786.94,62.15l50-34.15m9.58-12.6l-12.4,8.47-50,34.15-1.35.92-.54,1.54-362.88,1029.85-2.35,6.66h60.64l1.15-3.39L841.67,29.61l4.85-14.21h0Z" style="fill: #8c1d40;"/>
        </g>
        <g>
          <polygon points="40.53 1615.5 404.85 581.55 461.73 542.7 95.85 1615.5 40.53 1615.5" style="fill: #ffc627;"/>
          <path d="m456.94,549L94.06,1613h-50L406.94,583.15l50-34.15m9.58-12.6l-12.4,8.47-50,34.15-1.35.92-.54,1.54L39.35,1611.34l-2.35,6.66h60.64l1.15-3.39L461.67,550.61l4.85-14.21h0Z" style="fill: #ffc627;"/>
        </g>
        <g>
          <polygon points="244.53 1174.5 608.85 140.55 665.73 101.7 299.85 1174.5 244.53 1174.5" style="fill: #00a3e0;"/>
          <path d="m660.94,108l-362.88,1064h-50L610.94,142.15l50-34.15m9.58-12.6l-12.4,8.47-50,34.15-1.35.92-.54,1.54L243.35,1170.34l-2.35,6.66h60.64l1.15-3.39L665.67,109.61l4.85-14.21h0Z" style="fill: #00a3e0;"/>
        </g>
        <g>
          <polygon points="-175.47 1210.5 188.85 176.55 245.73 137.7 -120.15 1210.5 -175.47 1210.5" style="fill: #ffc627;"/>
          <path d="m240.94,144L-121.94,1208h-50L190.94,178.15l50-34.15m9.58-12.6l-12.4,8.47-50,34.15-1.35.92-.54,1.54L-176.65,1206.34l-2.35,6.66h60.64l1.15-3.39L245.67,145.61l4.85-14.21h0Z" style="fill: #ffc627;"/>
        </g>
        <g>
          <polygon points="35.53 1265.5 399.85 231.55 456.73 192.7 90.85 1265.5 35.53 1265.5" style="fill: #78be20;"/>
          <path d="m451.94,199L89.06,1263h-50L401.94,233.15l50-34.15m9.58-12.6l-12.4,8.47-50,34.15-1.35.92-.54,1.54L34.35,1261.34l-2.35,6.66h60.64l1.15-3.39L456.67,200.61l4.85-14.21h0Z" style="fill: #78be20;"/>
        </g>
        <g>
          <polygon points="498.15 -220.5 553.47 -220.5 189.15 813.45 132.27 852.3 498.15 -220.5" style="fill: #ff7f32;"/>
          <path d="m549.94-218L187.06,811.85l-50,34.15L499.94-218h50m7.06-5h-60.64l-1.15,3.39L132.33,844.39l-4.85,14.21,12.4-8.47,50-34.15,1.35-.92.54-1.54L554.66-216.34l2.35-6.66h0Z" style="fill: #ff7f32;"/>
        </g>
        <g>
          <polygon points="-345.47 1553.5 18.85 519.55 75.73 480.7 -290.15 1553.5 -345.47 1553.5" style="fill: #fff;"/>
          <path d="m70.94,487l-362.88,1064h-50L20.94,521.15l50-34.15m9.58-12.6l-12.4,8.47-50,34.15-1.35.92-.54,1.54-362.88,1029.85-2.35,6.66h60.64l1.15-3.39L75.67,488.61l4.85-14.21h0Z" style="fill: #fff;"/>
        </g>
        <g>
          <polygon points="-281.47 1735.5 82.85 701.55 139.73 662.7 -226.15 1735.5 -281.47 1735.5" style="fill: #747474;"/>
          <path d="m134.94,669L-227.94,1733h-50L84.94,703.15l50-34.15m9.58-12.6l-12.4,8.47-50,34.15-1.35.92-.54,1.54-362.88,1029.85-2.35,6.66h60.64l1.15-3.39L139.67,670.61l4.85-14.21h0Z" style="fill: #747474;"/>
        </g>
      </g>
      <g>
        <g>
          <polygon points="1447.15 -13.5 1502.47 -13.5 1138.15 1020.45 1081.27 1059.3 1447.15 -13.5" style="fill: #8c1d40;"/>
          <path d="m1498.94-11l-362.88,1029.85-50,34.15L1448.94-11h50m7.06-5h-60.64l-1.15,3.39-362.88,1064-4.85,14.21,12.4-8.47,50-34.15,1.35-.92.54-1.54L1503.66-9.34l2.35-6.66h0Z" style="fill: #8c1d40;"/>
        </g>
        <g>
          <polygon points="1827.15 -534.5 1882.47 -534.5 1518.15 499.45 1461.27 538.3 1827.15 -534.5" style="fill: #ffc627;"/>
          <path d="m1878.94-532l-362.88,1029.85-50,34.15,362.88-1064h50m7.06-5h-60.64l-1.15,3.39-362.88,1064-4.85,14.21,12.4-8.47,50-34.15,1.35-.92.54-1.54,362.88-1029.85,2.35-6.66h0Z" style="fill: #ffc627;"/>
        </g>
        <g>
          <polygon points="1623.15 -93.5 1678.47 -93.5 1314.15 940.45 1257.27 979.3 1623.15 -93.5" style="fill: #00a3e0;"/>
          <path d="m1674.94-91l-362.88,1029.85-50,34.15L1624.94-91h50m7.06-5h-60.64l-1.15,3.39-362.88,1064-4.85,14.21,12.4-8.47,50-34.15,1.35-.92.54-1.54L1679.66-89.34l2.35-6.66h0Z" style="fill: #00a3e0;"/>
        </g>
        <g>
          <polygon points="2043.15 -129.5 2098.47 -129.5 1734.15 904.45 1677.27 943.3 2043.15 -129.5" style="fill: #ffc627;"/>
          <path d="m2094.94-127l-362.88,1029.85-50,34.15L2044.94-127h50m7.06-5h-60.64l-1.15,3.39-362.88,1064-4.85,14.21,12.4-8.47,50-34.15,1.35-.92.54-1.54L2099.66-125.34l2.35-6.66h0Z" style="fill: #ffc627;"/>
        </g>
        <g>
          <polygon points="1832.15 -184.5 1887.47 -184.5 1523.15 849.45 1466.27 888.3 1832.15 -184.5" style="fill: #78be20;"/>
          <path d="m1883.94-182l-362.88,1029.85-50,34.15L1833.94-182h50m7.06-5h-60.64l-1.15,3.39-362.88,1064-4.85,14.21,12.4-8.47,50-34.15,1.35-.92.54-1.54L1888.66-180.34l2.35-6.66h0Z" style="fill: #78be20;"/>
        </g>
        <g>
          <polygon points="1369.53 1301.5 1733.85 267.55 1790.73 228.7 1424.85 1301.5 1369.53 1301.5" style="fill: #ff7f32;"/>
          <path d="m1785.94,235l-362.88,1064h-50l362.88-1029.85,50-34.15m9.58-12.6l-12.4,8.47-50,34.15-1.35.92-.54,1.54-362.88,1029.85-2.35,6.66h60.64l1.15-3.39L1790.67,236.61l4.85-14.21h0Z" style="fill: #ff7f32;"/>
        </g>
        <g>
          <polygon points="2213.15 -472.5 2268.47 -472.5 1904.15 561.45 1847.27 600.3 2213.15 -472.5" style="fill: #fff;"/>
          <path d="m2264.94-470l-362.88,1029.85-50,34.15,362.88-1064h50m7.06-5h-60.64l-1.15,3.39-362.88,1064-4.85,14.21,12.4-8.47,50-34.15,1.35-.92.54-1.54,362.88-1029.85,2.35-6.66h0Z" style="fill: #fff;"/>
        </g>
        <g>
          <polygon points="2149.15 -654.5 2204.47 -654.5 1840.15 379.45 1783.27 418.3 2149.15 -654.5" style="fill: #747474;"/>
          <path d="m2200.94-652l-362.88,1029.85-50,34.15,362.88-1064h50m7.06-5h-60.64l-1.15,3.39-362.88,1064-4.85,14.21,12.4-8.47,50-34.15,1.35-.92.54-1.54,362.88-1029.85,2.35-6.66h0Z" style="fill: #747474;"/>
        </g>
      </g>
    </g>
  </g>
</svg>